<?xml version="1.0" encoding="UTF-8" standalone="no"?>
<svg
   xmlns:dc="http://purl.org/dc/elements/1.1/"
   xmlns:cc="http://creativecommons.org/ns#"
   xmlns:rdf="http://www.w3.org/1999/02/22-rdf-syntax-ns#"
   xmlns:svg="http://www.w3.org/2000/svg"
   xmlns="http://www.w3.org/2000/svg"
   xmlns:sodipodi="http://sodipodi.sourceforge.net/DTD/sodipodi-0.dtd"
   xmlns:inkscape="http://www.inkscape.org/namespaces/inkscape"
   inkscape:version="1.0 (4035a4fb49, 2020-05-01)"
   sodipodi:docname="home-icon.svg"
   xml:space="preserve"
   style="enable-background:new 0 0 512 512;"
   viewBox="0 0 512 512"
   y="0px"
   x="0px"
   id="Capa_1"
   version="1.1"><metadata
   id="metadata1130"><rdf:RDF><cc:Work
       rdf:about=""><dc:format>image/svg+xml</dc:format><dc:type
         rdf:resource="http://purl.org/dc/dcmitype/StillImage" /></cc:Work></rdf:RDF></metadata><defs
   id="defs1128" /><sodipodi:namedview
   inkscape:current-layer="g1091"
   inkscape:window-maximized="1"
   inkscape:window-y="-8"
   inkscape:window-x="1912"
   inkscape:cy="178.07177"
   inkscape:cx="274.31879"
   inkscape:zoom="0.60628882"
   showgrid="false"
   id="namedview1126"
   inkscape:window-height="1027"
   inkscape:window-width="1920"
   inkscape:pageshadow="2"
   inkscape:pageopacity="0"
   guidetolerance="10"
   gridtolerance="10"
   objecttolerance="10"
   borderopacity="1"
   bordercolor="#666666"
   pagecolor="#ffffff" />
<g
   id="g1093">
	<g
   id="g1091">
		<path
   style="fill:#00a7e1;fill-opacity:1;stroke:#00a7e1;stroke-opacity:1"
   id="path1089"
   d="M 503.401,228.884 460.148,189.473 V 58.79 c 0,-8.315 -6.741,-15.057 -15.057,-15.057 H 340.976 c -8.315,0 -15.057,6.741 -15.057,15.057 v 8.374 L 273.683,19.567 C 263.6,10.378 248.395,10.379 238.316,19.566 L 8.598001,228.885 c -8.0760003,7.36 -10.7450003,18.7 -6.7990003,28.889 3.947,10.189 13.5570003,16.772 24.4840003,16.772 h 36.689 v 209.721 c 0,8.315 6.741,15.057 15.056995,15.057 H 203.942 c 8.315,0 15.057,-6.741 15.057,-15.057 V 356.931 H 293 v 127.337 c 0,8.315 6.741,15.057 15.057,15.057 h 125.908 c 8.315,0 15.057,-6.741 15.056,-15.057 V 274.547 h 36.697 c 10.926,0 20.537,-6.584 24.484,-16.772 3.945,-10.19 1.277,-21.53 -6.801,-28.891 z m -69.436,15.549 c -8.315,0 -15.057,6.741 -15.057,15.057 V 469.211 H 323.115 V 341.874 c 0,-8.315 -6.742,-15.057 -15.057,-15.057 H 203.942 c -8.315,0 -15.057,6.741 -15.057,15.057 V 469.211 H 93.084999 V 259.49 c 0,-8.315 -6.741003,-15.057 -15.057003,-15.057 H 36.245001 L 256.001,44.193 l 74.836,68.191 c 4.408,4.016 10.771,5.051 16.224,2.644 5.454,-2.41 8.973,-7.812 8.973,-13.774 V 73.847 h 74.002 v 122.276 c 0,4.237 1.784,8.276 4.916,11.13 l 40.803,37.18 z" />
	</g>
</g>
<g
   id="g1095">
</g>
<g
   id="g1097">
</g>
<g
   id="g1099">
</g>
<g
   id="g1101">
</g>
<g
   id="g1103">
</g>
<g
   id="g1105">
</g>
<g
   id="g1107">
</g>
<g
   id="g1109">
</g>
<g
   id="g1111">
</g>
<g
   id="g1113">
</g>
<g
   id="g1115">
</g>
<g
   id="g1117">
</g>
<g
   id="g1119">
</g>
<g
   id="g1121">
</g>
<g
   id="g1123">
</g>
</svg>
