<?xml version="1.0" encoding="UTF-8" standalone="no"?>
<svg
   xmlns:dc="http://purl.org/dc/elements/1.1/"
   xmlns:cc="http://creativecommons.org/ns#"
   xmlns:rdf="http://www.w3.org/1999/02/22-rdf-syntax-ns#"
   xmlns:svg="http://www.w3.org/2000/svg"
   xmlns="http://www.w3.org/2000/svg"
   xmlns:sodipodi="http://sodipodi.sourceforge.net/DTD/sodipodi-0.dtd"
   xmlns:inkscape="http://www.inkscape.org/namespaces/inkscape"
   inkscape:version="1.0 (4035a4fb49, 2020-05-01)"
   sodipodi:docname="user-icon.svg"
   xml:space="preserve"
   style="enable-background:new 0 0 512 512;"
   viewBox="0 0 512 512"
   y="0px"
   x="0px"
   id="Capa_1"
   version="1.1"><metadata
   id="metadata2368"><rdf:RDF><cc:Work
       rdf:about=""><dc:format>image/svg+xml</dc:format><dc:type
         rdf:resource="http://purl.org/dc/dcmitype/StillImage" /></cc:Work></rdf:RDF></metadata><defs
   id="defs2366" /><sodipodi:namedview
   inkscape:current-layer="Capa_1"
   inkscape:window-maximized="1"
   inkscape:window-y="-8"
   inkscape:window-x="1912"
   inkscape:cy="640.04434"
   inkscape:cx="614.76612"
   inkscape:zoom="0.42871094"
   showgrid="false"
   id="namedview2364"
   inkscape:window-height="1027"
   inkscape:window-width="1920"
   inkscape:pageshadow="2"
   inkscape:pageopacity="0"
   guidetolerance="10"
   gridtolerance="10"
   objecttolerance="10"
   borderopacity="1"
   bordercolor="#666666"
   pagecolor="#ffffff" />
<g
   style="fill:#00a7f1;fill-opacity:0.66666669"
   id="g2331">
	<g
   style="fill:#00a7f1;fill-opacity:0.66666669"
   id="g2329">
		<path
   style="fill:#00a7f1;fill-opacity:0.66666669"
   id="path2327"
   d="M437.02,330.98c-27.883-27.882-61.071-48.523-97.281-61.018C378.521,243.251,404,198.548,404,148    C404,66.393,337.607,0,256,0S108,66.393,108,148c0,50.548,25.479,95.251,64.262,121.962    c-36.21,12.495-69.398,33.136-97.281,61.018C26.629,379.333,0,443.62,0,512h40c0-119.103,96.897-216,216-216s216,96.897,216,216    h40C512,443.62,485.371,379.333,437.02,330.98z M256,256c-59.551,0-108-48.448-108-108S196.449,40,256,40    c59.551,0,108,48.448,108,108S315.551,256,256,256z" />
	</g>
</g>
<g
   id="g2333">
</g>
<g
   id="g2335">
</g>
<g
   id="g2337">
</g>
<g
   id="g2339">
</g>
<g
   id="g2341">
</g>
<g
   id="g2343">
</g>
<g
   id="g2345">
</g>
<g
   id="g2347">
</g>
<g
   id="g2349">
</g>
<g
   id="g2351">
</g>
<g
   id="g2353">
</g>
<g
   id="g2355">
</g>
<g
   id="g2357">
</g>
<g
   id="g2359">
</g>
<g
   id="g2361">
</g>
</svg>
